<svg xmlns="http://www.w3.org/2000/svg" width="389.24" height="386.45" viewBox="0 0 389.24 386.45">
    <rect x="1.86" width="386.45" height="386.45" rx="50" fill="#e11b45"/>
    <path d="M134.54,273.41c23.88,0,42.79,21,42.79,44.78S158.42,362.92,134.54,363s-42.95-20.9-42.95-44.78S110.6,273.37,134.54,273.41Zm78.26,43.91c0,23.89,19,44.83,42.95,44.78s42.79-21,42.79-44.78-18.91-44.73-42.79-44.77S212.8,293.44,212.8,317.32Zm-35.47,1.93c21.19.33,35.51,0,35.51,0M134.65,237.1H261.23V173.81H134.65Zm117.89-63.29h8.69L314.65,62.55C234.67,14.17,157.92,14.94,84,59.37m0,0c-1.72,1-3.45,2.09-5.17,3.18l.67,1.38,55.13,109.88H252.54M197.28,74.3l.3,99.51M148.19,91l15.39,78.76m67,.34q8.82-39.72,17.65-79.44" fill="none" stroke="#fefaef" stroke-linecap="round" stroke-linejoin="round" stroke-width="20"/>
</svg>