<?xml version="1.0" encoding="utf-8"?>
<!-- Generator: Adobe Illustrator 26.3.1, SVG Export Plug-In . SVG Version: 6.00 Build 0)  -->
<svg version="1.1" id="Layer_1" xmlns="http://www.w3.org/2000/svg" xmlns:xlink="http://www.w3.org/1999/xlink" x="0px" y="0px"
	 viewBox="0 0 916 428" style="enable-background:new 0 0 916 428;" xml:space="preserve">
<style type="text/css">
	.st0{enable-background:new    ;}
	.st1{fill:#1E1E1E;}
	.st2{fill:none;stroke:#E11B45;stroke-width:20;stroke-miterlimit:10;}
	.st3{fill:none;stroke:#E11B45;stroke-width:20;stroke-linecap:round;stroke-linejoin:round;}
</style>
<g class="st0">
	<path class="st1" d="M125.9,422.1c-17.3,0-33.2-3.1-47.8-9.2c-14.5-6.1-27.1-14.8-37.7-26c-10.6-11.2-18.9-24.4-24.8-39.6
		c-5.9-15.2-8.8-31.9-8.8-49.9c0-17.8,2.9-34.1,8.8-49c5.9-14.9,14.2-27.9,25.1-39.1c10.8-11.2,23.4-19.8,37.7-25.8
		c14.3-6,30-9,47.1-9c11.3,0,22.5,1.8,33.6,5.4c11.1,3.6,21.3,8.5,30.6,14.7c9.3,6.2,17,13.4,23,21.5l-18.7,19.4
		c-5.8-6.9-12.4-12.9-19.9-18c-7.5-5.1-15.4-9-23.7-11.8s-16.6-4.2-24.9-4.2c-12.9,0-25,2.4-36.2,7.1c-11.2,4.7-20.8,11.4-28.9,19.9
		c-8.1,8.5-14.4,18.7-18.9,30.5c-4.5,11.8-6.8,24.6-6.8,38.4c0,14.3,2.3,27.5,6.8,39.5c4.5,12,11,22.3,19.4,31
		c8.4,8.7,18.3,15.4,29.8,20.1c11.4,4.7,24.2,7.1,38.3,7.1c8.3,0,16.6-1.2,24.9-3.6c8.3-2.4,15.9-5.8,22.9-10.2
		c6.9-4.4,12.8-9.3,17.7-14.9l13.8,22.5c-5.3,6.5-12.4,12.2-21.3,17.1c-8.9,5-18.6,8.9-29.3,11.8
		C147.2,420.7,136.5,422.1,125.9,422.1z"/>
</g>
<g class="st0">
	<path class="st1" d="M522.1,418.7V247.9h23.8v170.8H522.1z M543.8,380.8l-1.2-25.9l57.9-57.5h32.1L543.8,380.8z M603.8,418.7
		l-45.7-53.3l16.8-15.5l59.3,68.8H603.8z"/>
</g>
<g class="st0">
	<path class="st1" d="M716.2,421c-12.5,0-23.5-2.7-33.1-8c-9.6-5.3-17.2-12.6-22.6-21.8c-5.5-9.2-8.2-19.8-8.2-31.9
		c0-9.5,1.5-18.2,4.6-26.1c3.1-7.8,7.3-14.7,12.8-20.4c5.5-5.8,12-10.2,19.6-13.4c7.6-3.2,15.9-4.7,24.8-4.7
		c7.8,0,15.2,1.5,21.9,4.5c6.8,3,12.7,7.1,17.7,12.3c5,5.2,8.8,11.4,11.5,18.6c2.7,7.2,4,15,3.8,23.4l-0.2,10.2h-99l-5.3-18.9h83.8
		l-3.5,3.9v-5.5c-0.5-5.1-2.2-9.6-5.1-13.6c-2.9-4-6.6-7.2-11.1-9.5c-4.5-2.3-9.3-3.5-14.5-3.5c-8.3,0-15.3,1.6-21,4.7
		c-5.7,3.2-10,7.8-12.9,13.8c-2.9,6.1-4.4,13.6-4.4,22.5c0,8.5,1.8,15.8,5.3,22c3.5,6.2,8.5,11,15,14.4c6.5,3.4,13.9,5.1,22.4,5.1
		c6,0,11.6-1,16.7-3c5.2-2,10.7-5.6,16.7-10.8l12,16.8c-3.7,3.7-8.2,6.9-13.5,9.7s-10.9,5-16.8,6.6C727.7,420.2,721.9,421,716.2,421
		z"/>
	<path class="st1" d="M845.5,421c-11.1,0-21-2.7-29.7-8.2c-8.7-5.5-15.6-12.9-20.7-22.4c-5.1-9.5-7.6-20.3-7.6-32.4
		c0-12.2,2.5-23,7.5-32.4c5-9.5,11.8-16.9,20.4-22.4c8.6-5.5,18.4-8.2,29.3-8.2c6,0,11.8,1,17.4,2.9c5.6,1.9,10.7,4.5,15.1,7.8
		c4.5,3.3,8,6.9,10.5,10.8c2.5,3.9,3.8,7.9,3.8,11.9l-6.9,0.5v-81h23.8v170.8h-23.8v-28.9h4.6c0,3.7-1.2,7.4-3.7,11
		c-2.5,3.6-5.7,7-9.8,10c-4.1,3.1-8.8,5.5-14.1,7.4C856.4,420.1,851,421,845.5,421z M848.7,400.4c7.2,0,13.6-1.8,19.2-5.5
		c5.5-3.7,9.9-8.7,13-15.1c3.2-6.4,4.7-13.7,4.7-21.8c0-8.2-1.6-15.4-4.7-21.8c-3.2-6.4-7.5-11.4-13-15.1
		c-5.5-3.7-11.9-5.5-19.2-5.5c-7.2,0-13.6,1.8-19.2,5.5c-5.5,3.7-9.9,8.7-13,15.1c-3.2,6.4-4.7,13.7-4.7,21.8
		c0,8.2,1.6,15.4,4.7,21.8c3.2,6.4,7.5,11.4,13,15.1C835.1,398.6,841.5,400.4,848.7,400.4z"/>
</g>
<path class="st2" d="M296.5,305.7c28,0.1,50.1,24.5,50.1,52.4s-22.1,52.4-50.1,52.4s-50.3-24.5-50.3-52.4S268.4,305.6,296.5,305.7z"
	/>
<path class="st2" d="M438.4,304.6c28,0,50.1,24.5,50.1,52.4s-22.1,52.4-50.1,52.4s-50.3-24.5-50.3-52.4S410.3,304.6,438.4,304.6z"/>
<path class="st2" d="M346.6,359.3c24.8,0.4,41.6,0,41.6,0"/>
<rect x="296.6" y="189" class="st3" width="148.2" height="74.1"/>
<path class="st3" d="M231.2,58.8c88.4-55.7,180.3-58,276.1,0L444.8,189H296.6L232,60.4L231.2,58.8z"/>
<path class="st3" d="M369.9,72.5l0.4,116.5"/>
<path class="st3" d="M312.4,92c6,30.7,12,61.5,18,92.2"/>
<path class="st3" d="M429.6,92l-20.7,93"/>
</svg>
