<svg xmlns="http://www.w3.org/2000/svg" width="304" height="428" viewBox="0 0 304 428">
    <path d="M79.45,305.66c28,.06,50.11,24.55,50.11,52.43s-22.15,52.38-50.11,52.44-50.3-24.47-50.3-52.44S51.42,305.61,79.45,305.66Z" fill="none" stroke="#e11b45" stroke-miterlimit="10" stroke-width="20"/>
    <path d="M221.37,304.65c28,.05,50.11,24.54,50.11,52.43s-22.14,52.38-50.11,52.43S171.08,385,171.08,357.08,193.34,304.6,221.37,304.65Z" fill="none" stroke="#e11b45" stroke-miterlimit="10" stroke-width="20"/>
    <path d="M129.56,359.34c24.81.38,41.57,0,41.57,0" fill="none" stroke="#e11b45" stroke-miterlimit="10" stroke-width="20"/>
    <rect x="79.58" y="189.04" width="148.21" height="74.1" fill="none" stroke="#e11b45" stroke-linecap="round" stroke-linejoin="round" stroke-width="20"/>
    <path d="M14.24,58.76c88.39-55.67,180.27-58,276.1,0L227.79,189H79.58L15,60.38Z" fill="none" stroke="#e11b45" stroke-linecap="round" stroke-linejoin="round" stroke-width="20"/>
    <path d="M152.91,72.53,153.27,189" fill="none" stroke="#e11b45" stroke-linecap="round" stroke-linejoin="round" stroke-width="20"/>
    <path d="M95.44,92q9,46.11,18,92.22" fill="none" stroke="#e11b45" stroke-linecap="round" stroke-linejoin="round" stroke-width="20"/>
    <path d="M212.61,92l-20.67,93" fill="none" stroke="#e11b45" stroke-linecap="round" stroke-linejoin="round" stroke-width="20"/>
</svg>